<?xml version="1.0" encoding="UTF-8" standalone="no"?>
<!-- Created with Inkscape (http://www.inkscape.org/) -->

<svg
   width="56.358971mm"
   height="49.063488mm"
   viewBox="0 0 56.358971 49.063488"
   version="1.1"
   id="svg1"
   xml:space="preserve"
   inkscape:version="1.3.2 (091e20e, 2023-11-25)"
   sodipodi:docname="logo.svg"
   xmlns:inkscape="http://www.inkscape.org/namespaces/inkscape"
   xmlns:sodipodi="http://sodipodi.sourceforge.net/DTD/sodipodi-0.dtd"
   xmlns:xlink="http://www.w3.org/1999/xlink"
   xmlns="http://www.w3.org/2000/svg"
   xmlns:svg="http://www.w3.org/2000/svg"><sodipodi:namedview
     id="namedview1"
     pagecolor="#505050"
     bordercolor="#eeeeee"
     borderopacity="1"
     inkscape:showpageshadow="0"
     inkscape:pageopacity="0"
     inkscape:pagecheckerboard="0"
     inkscape:deskcolor="#505050"
     inkscape:document-units="mm"
     inkscape:zoom="1.0132045"
     inkscape:cx="259.07899"
     inkscape:cy="199.86094"
     inkscape:window-width="1920"
     inkscape:window-height="1007"
     inkscape:window-x="0"
     inkscape:window-y="0"
     inkscape:window-maximized="1"
     inkscape:current-layer="layer1"
     showgrid="false" /><defs
     id="defs1"><linearGradient
       id="linearGradient5"
       inkscape:collect="always"><stop
         style="stop-color:#0000ff;stop-opacity:1"
         offset="0"
         id="stop5" /><stop
         style="stop-color:#000000;stop-opacity:1;"
         offset="1"
         id="stop6" /></linearGradient><filter
       inkscape:collect="always"
       style="color-interpolation-filters:sRGB"
       id="filter5"
       x="-0.046269432"
       y="-0.072996762"
       width="1.0925389"
       height="1.1459935"><feGaussianBlur
         inkscape:collect="always"
         stdDeviation="3.6172061"
         id="feGaussianBlur5" /></filter><linearGradient
       inkscape:collect="always"
       xlink:href="#linearGradient5"
       id="linearGradient6"
       x1="114.44501"
       y1="83.082199"
       x2="12.867161"
       y2="-11.417708"
       gradientUnits="userSpaceOnUse"
       gradientTransform="matrix(0.59980323,0,0,0.59980323,-0.68045005,2.1749816)" /></defs><g
     inkscape:label="Layer 1"
     inkscape:groupmode="layer"
     id="layer1"
     transform="translate(-3.3876741,-2.6951081)"><path
       style="fill:#f9f9f9;filter:url(#filter5)"
       d="m 93.924844,9.565108 c 2.1372,-0.0597 4.2976,0.0406 6.465756,0.30954 16.25246,2.01614 30.16686,12.97261 35.30379,27.79882 0.95365,2.75244 1.45047,3.43272 2.91765,3.99304 1.19569,0.45664 1.24536,0.45318 4.0318,-0.27698 6.89967,-1.80799 14.52948,-0.87992 20.94497,2.54816 8.29266,4.431142 14.04078,12.767855 15.37374,22.296315 0.53943,3.856 1.26303,4.518231 5.70973,5.225521 5.58172,0.88783 9.15487,2.647663 12.7832,6.296773 3.53496,3.5552 5.53663,7.801987 6.12779,13.000757 0.98017,8.619798 -1.90141,20.186246 -8.73332,25.352316 -23.88735,18.06281 -121.748235,14.17206 -158.720351,2.14982 -4.630619,-1.50574 -7.479906,-8.4469 -11.189686,-12.17284 -4.44418,-4.46353 -7.00034,-9.214318 -8.33696,-15.496211 -0.53994,-2.53765 -0.61947,-8.438858 -0.14831,-10.980208 1.44148,-7.77511 5.56474,-14.672958 11.33936,-18.968868 5.28357,-3.93061 9.97629,-5.448696 17.92293,-5.798096 3.293103,-0.14479 3.813093,-0.23285 4.688613,-0.79375 0.54164,-0.34701 1.17106,-0.990337 1.39836,-1.429887 0.2273,-0.43955 0.63888,-2.577087 0.91467,-4.750097 0.78479,-6.183435 2.34463,-11.114385 5.13767,-16.238285 7.29075,-13.37504 21.10823,-21.64797 36.068598,-22.06584 z"
       id="path5"
       sodipodi:nodetypes="scssssssssssssssssssss"
       transform="matrix(0.27326761,0,0,0.27326761,1.5342776,2.4581408)" /><path
       id="path1"
       style="fill:url(#linearGradient6);stroke-width:0.273267"
       d="M 28.006992,2.8258911 C 21.661824,2.5996419 16.03811,6.5198685 14.019877,12.576205 c -0.246304,0.73911 -0.545525,2.051073 -0.545525,2.391008 0,0.167236 -0.02879,0.179279 -0.524447,0.221619 -2.272625,0.194141 -4.1452162,0.992053 -5.9068492,2.51685 -2.9409659,2.545578 -4.2580219,6.686669 -3.3943377,10.673056 0.2728386,1.259299 0.7795664,2.42087 1.5702417,3.60046 1.850352,2.760506 4.633189,4.397791 7.9138202,4.655862 0.406456,0.03196 2.284678,0.05426 4.17357,0.04928 3.832358,-0.01015 3.690838,0.0078 4.09515,-0.522278 0.148954,-0.195288 0.206106,-0.364244 0.228748,-0.677255 0.03809,-0.526554 -0.111243,-0.862822 -0.495931,-1.117395 l -0.28206,-0.186594 h -3.396198 c -3.622224,0 -4.519619,-0.05923 -5.644315,-0.372568 -1.2818,-0.357112 -2.4593052,-1.062562 -3.4730682,-2.080741 -1.21445,-1.219734 -1.9126183,-2.517991 -2.2778732,-4.234628 -0.1475498,-0.693457 -0.1696676,-2.306224 -0.040914,-3.000692 0.3939094,-2.124686 1.5209326,-4.009477 3.0989496,-5.18341 1.4438278,-1.074108 2.7260688,-1.48902 4.8976288,-1.584499 0.899897,-0.03957 1.042111,-0.06369 1.281362,-0.21697 0.148014,-0.09483 0.320063,-0.270741 0.382176,-0.390856 0.06211,-0.120115 0.17446,-0.704286 0.249826,-1.298099 0.214457,-1.689731 0.640856,-3.036837 1.404105,-4.437033 2.27694,-4.1771035 6.883175,-6.5332737 11.623074,-5.9452838 4.44127,0.5509458 8.243654,3.5449034 9.647409,7.5964238 0.260602,0.752152 0.396276,0.937931 0.797208,1.091048 0.326744,0.124785 0.340454,0.1239 1.101898,-0.07563 1.885456,-0.494066 3.970518,-0.24031 5.723664,0.696473 2.266115,1.210888 3.8369,3.489003 4.201156,6.092823 0.147408,1.05372 0.344874,1.234382 1.560013,1.427662 1.525303,0.242615 2.501709,0.723696 3.493214,1.72088 0.96599,0.971521 1.513153,2.132071 1.674698,3.552726 0.267848,2.355512 -0.966998,4.712408 -3.039128,5.800844 -1.139863,0.598738 -1.856883,0.760531 -3.624326,0.818286 -0.812969,0.02657 -1.357043,0.07378 -1.387057,0.120263 -0.06036,0.09344 -0.07149,2.03345 -0.01302,2.266405 0.04137,0.164927 0.05602,0.167067 1.07493,0.167067 3.145665,0 5.032559,-0.652556 6.826801,-2.360632 1.457134,-1.387158 2.31381,-2.97478 2.643,-4.897319 0.70583,-4.122248 -2.088291,-8.461799 -6.141174,-9.537684 l -0.638199,-0.169545 -0.160248,-0.609376 c -0.309565,-1.178139 -0.837581,-2.287396 -1.611776,-3.385349 -1.463818,-2.075968 -3.551711,-3.500586 -6.058108,-4.133585 -1.201957,-0.303559 -2.260783,-0.37154 -3.862063,-0.247966 l -0.542114,0.04184 -0.162108,-0.418752 C 39.794968,9.2690613 37.966771,6.9789937 36.249366,5.7165493 33.709136,3.8492516 31.106421,2.9364087 28.006992,2.8258911 Z m 5.39139,14.5391479 c -0.842258,0.0067 -1.674075,0.06624 -2.174038,0.175746 -1.612699,0.353234 -3.105631,0.962622 -4.251368,1.735759 -4.451725,3.003992 -6.324514,8.251243 -4.775197,13.37867 1.063316,3.519017 3.882764,6.456424 7.363646,7.671433 2.43975,0.851601 5.418434,0.832823 7.91692,-0.0499 0.695712,-0.245799 1.881261,-0.810586 2.366831,-1.127623 l 0.378148,-0.247036 0.977294,0.986593 c 0.938827,0.947479 0.977604,0.998139 0.977604,1.285702 0,0.164657 0.03413,0.391113 0.07594,0.503059 0.07289,0.195196 9.209271,9.414707 9.64028,9.727998 0.114728,0.08339 0.326142,0.193498 0.469894,0.244866 0.708359,0.253141 1.029906,0.109219 2.08849,-0.93576 1.213841,-1.198245 1.439975,-1.687919 1.107476,-2.398756 -0.09235,-0.197425 -1.669405,-1.817911 -4.969229,-5.106231 -5.105002,-5.087204 -4.901901,-4.907547 -5.548848,-4.907547 -0.195348,0 -0.366591,-0.139908 -1.2296,-1.004571 l -1.0024,-1.00426 0.325144,-0.459666 c 0.763696,-1.080398 1.424705,-2.467301 1.753427,-3.679189 0.720582,-2.65654 0.463575,-5.535418 -0.7191,-8.059809 -1.588647,-3.390929 -4.835055,-5.89698 -8.534973,-6.588754 -0.54143,-0.101232 -1.39408,-0.147414 -2.23634,-0.140721 z m 0.0933,2.491744 c 1.340247,0.0069 2.675359,0.312167 3.914446,0.914993 2.378327,1.15707 4.067941,3.078845 4.876242,5.546369 1.237659,3.778233 -0.06841,7.853047 -3.290192,10.265773 -0.974995,0.730155 -2.217801,1.298365 -3.460359,1.58202 -0.851582,0.1944 -2.781269,0.247164 -3.584342,0.09795 -2.063633,-0.383438 -3.694419,-1.218649 -5.065936,-2.594649 -3.099462,-3.1096 -3.559667,-7.979103 -1.107476,-11.719161 0.776712,-1.184634 2.415675,-2.582983 3.772486,-3.218593 1.259456,-0.590001 2.604885,-0.881576 3.945131,-0.874698 z m -0.08927,2.22673 c -0.560053,-0.01654 -1.115735,0.421823 -1.188685,1.069042 -0.04633,0.411071 0.148686,0.8719 0.449748,1.063152 0.113881,0.07235 0.232577,0.168219 0.263773,0.21294 0.07354,0.105301 0.07257,4.914132 -9.3e-4,5.028432 -0.03068,0.04772 -0.170889,0.14586 -0.311507,0.217899 -0.599407,0.307086 -0.860469,1.349362 -0.491282,1.961408 0.249956,0.414377 0.455091,0.577861 0.860131,0.686244 0.200534,0.05368 0.418464,0.08499 0.484152,0.06974 0.06569,-0.01527 0.231509,-0.05001 0.368539,-0.07749 0.544852,-0.109271 0.985043,-0.735114 0.985043,-1.400385 0,-0.549246 -0.242498,-0.969413 -0.733357,-1.271443 l -0.381557,-0.234638 0.0012,-2.448969 c 6.72e-4,-1.346987 0.02765,-2.485809 0.05982,-2.530489 0.03217,-0.04468 0.152353,-0.122286 0.267183,-0.172646 0.123634,-0.05422 0.281761,-0.242564 0.387756,-0.461525 0.288748,-0.596475 0.124585,-1.124946 -0.476404,-1.533977 -0.17001,-0.115708 -0.35698,-0.171781 -0.543664,-0.177296 z m -3.070743,5.025022 c -0.04366,0.0025 -0.09254,0.02749 -0.167067,0.07284 -0.31152,0.189557 -3.703365,3.576867 -3.703365,3.698406 0,0.06164 0.831438,0.937947 1.847963,1.947149 1.512104,1.501218 1.888155,1.834945 2.067413,1.834945 0.263197,0 0.430229,-0.245046 0.312126,-0.457806 -0.04254,-0.07664 -0.778299,-0.837618 -1.635023,-1.691126 -0.856723,-0.85351 -1.557533,-1.591677 -1.557533,-1.640291 0,-0.04862 0.716734,-0.791719 1.592559,-1.651141 0.944746,-0.927051 1.592248,-1.622986 1.592248,-1.711272 0,-0.08184 -0.07355,-0.215357 -0.163347,-0.296628 -0.08241,-0.07458 -0.129843,-0.108332 -0.185974,-0.105076 z m 6.094992,0.01953 c -0.170326,-0.0099 -0.331344,0.147527 -0.331344,0.36203 0,0.19084 0.256315,0.477894 1.592249,1.781632 0.875826,0.854715 1.592559,1.588784 1.592559,1.631304 0,0.04252 -0.718126,0.77061 -1.595659,1.617974 -0.87753,0.847365 -1.616162,1.622508 -1.641221,1.722431 -0.02508,0.09993 -0.0013,0.234918 0.05269,0.300038 0.05404,0.06512 0.193629,0.118404 0.309957,0.118404 0.169838,0 0.567891,-0.357671 2.020609,-1.815418 1.198552,-1.202697 1.808908,-1.8711 1.808908,-1.980934 0,-0.111404 -0.584183,-0.734022 -1.781322,-1.898177 -0.979806,-0.95281 -1.839347,-1.764744 -1.909954,-1.804259 -0.03842,-0.0215 -0.07817,-0.03273 -0.117474,-0.03503 z" /></g></svg>
